<svg width="290" height="269" fill="none" xmlns="http://www.w3.org/2000/svg"><path opacity=".05" d="M144.54 252.882c2.124 0 4.162.849 5.664 2.361a8.08 8.08 0 012.347 5.698 8.084 8.084 0 01-2.347 5.699 7.987 7.987 0 01-5.664 2.36 7.988 7.988 0 01-5.665-2.36 8.087 8.087 0 01-2.346-5.699c0-2.137.844-4.187 2.346-5.698a7.984 7.984 0 015.665-2.361zm-68.482-4.186a6.47 6.47 0 014.588 1.912 6.546 6.546 0 011.9 4.615 6.548 6.548 0 01-1.9 4.616 6.47 6.47 0 01-4.588 1.912 6.47 6.47 0 01-4.588-1.912 6.548 6.548 0 01-1.9-4.616c0-1.731.683-3.391 1.9-4.615a6.47 6.47 0 014.588-1.912zm138.587-.263a6.466 6.466 0 014.583 1.91 6.55 6.55 0 010 9.221 6.466 6.466 0 01-4.583 1.91 6.462 6.462 0 01-4.583-1.91 6.542 6.542 0 01-1.898-4.611c0-1.729.683-3.387 1.898-4.61a6.462 6.462 0 014.583-1.91zM94.24 213.47a9.887 9.887 0 017.013 2.922 10.008 10.008 0 012.905 7.055c0 2.646-1.045 5.184-2.905 7.055a9.887 9.887 0 01-7.013 2.922 9.888 9.888 0 01-7.012-2.922 10.008 10.008 0 01-2.905-7.055c0-2.646 1.045-5.184 2.905-7.055a9.888 9.888 0 017.012-2.922zm102.063-.073a9.86 9.86 0 013.796.76 9.914 9.914 0 013.217 2.162 10.02 10.02 0 012.15 10.873 9.965 9.965 0 01-5.367 5.4 9.877 9.877 0 01-10.809-2.163 10.007 10.007 0 01-2.904-7.055c0-2.646 1.044-5.184 2.904-7.055a9.889 9.889 0 017.013-2.922zm-51.589-11.158a11.401 11.401 0 018.469 3.158 11.531 11.531 0 012.634 3.807 11.583 11.583 0 010 9.086 11.546 11.546 0 01-2.634 3.808 11.402 11.402 0 01-16.194-.41 11.56 11.56 0 01-3.154-7.941c0-2.956 1.129-5.798 3.154-7.94a11.423 11.423 0 017.725-3.568zM36.43 189.986c2.125 0 4.163.849 5.665 2.361a8.082 8.082 0 012.346 5.698 8.086 8.086 0 01-2.346 5.699 7.988 7.988 0 01-5.665 2.36 7.988 7.988 0 01-5.664-2.36 8.086 8.086 0 01-2.347-5.699c0-2.137.844-4.187 2.347-5.698a7.985 7.985 0 015.664-2.361zm217.596-.554c2.125 0 4.163.849 5.665 2.36a8.086 8.086 0 012.346 5.699 8.083 8.083 0 01-2.346 5.698 7.984 7.984 0 01-5.665 2.361 7.984 7.984 0 01-5.664-2.361 8.08 8.08 0 01-2.347-5.698c0-2.138.844-4.187 2.347-5.699a7.987 7.987 0 015.664-2.36zm-131.859-34.701c5.26 0 10.306 2.102 14.026 5.845a20.016 20.016 0 015.809 14.109c0 5.292-2.09 10.368-5.809 14.11a19.778 19.778 0 01-14.026 5.844 19.776 19.776 0 01-14.026-5.844 20.015 20.015 0 01-5.81-14.11c0-5.292 2.09-10.367 5.81-14.109a19.773 19.773 0 0114.026-5.845zm45.92-.189a19.776 19.776 0 0114.026 5.844 20.014 20.014 0 015.81 14.11c0 5.292-2.09 10.367-5.81 14.109a19.777 19.777 0 01-14.026 5.845 19.777 19.777 0 01-14.026-5.845 20.012 20.012 0 01-5.809-14.109 20.013 20.013 0 015.809-14.11 19.776 19.776 0 0114.026-5.844zm-91.029 8.212c1.551-.079 3.102.16 4.558.703a11.44 11.44 0 013.912 2.455 11.515 11.515 0 012.633 3.807 11.58 11.58 0 01-2.633 12.894 11.452 11.452 0 01-3.912 2.454 11.401 11.401 0 01-12.282-2.864 11.561 11.561 0 01-3.154-7.941c0-2.956 1.129-5.798 3.154-7.94a11.422 11.422 0 017.724-3.568zm136.152-.409a11.4 11.4 0 014.557.704 11.448 11.448 0 013.912 2.454 11.522 11.522 0 012.634 3.807 11.592 11.592 0 010 9.087 11.502 11.502 0 01-6.546 6.262 11.399 11.399 0 01-4.557.703 11.423 11.423 0 01-7.725-3.568 11.557 11.557 0 01-3.154-7.94 11.56 11.56 0 013.154-7.941 11.427 11.427 0 017.725-3.568zM99.127 114.663c5.26 0 10.306 2.102 14.026 5.844a20.019 20.019 0 015.809 14.11c0 5.292-2.09 10.367-5.809 14.109a19.779 19.779 0 01-14.026 5.845 19.777 19.777 0 01-14.026-5.845 20.013 20.013 0 01-5.81-14.109c0-5.292 2.09-10.368 5.81-14.11a19.776 19.776 0 0114.026-5.844zm91.855-.219a19.776 19.776 0 0114.026 5.844 20.014 20.014 0 015.809 14.11 20.016 20.016 0 01-5.809 14.11 19.776 19.776 0 01-14.026 5.844 19.776 19.776 0 01-14.026-5.844 20.017 20.017 0 01-5.81-14.11c0-5.292 2.09-10.368 5.81-14.11a19.776 19.776 0 0114.026-5.844zM42.868 124.829a9.9 9.9 0 017.013 2.923 9.979 9.979 0 012.15 3.236 10.032 10.032 0 010 7.636 9.972 9.972 0 01-2.15 3.237 9.873 9.873 0 01-14.026 0 10.008 10.008 0 01-2.905-7.055c0-2.646 1.045-5.183 2.905-7.054a9.885 9.885 0 017.013-2.923zm204.315-.51a9.85 9.85 0 013.91.646 9.903 9.903 0 013.346 2.135 9.975 9.975 0 012.249 3.283 10.03 10.03 0 010 7.811 9.975 9.975 0 01-2.249 3.283 9.903 9.903 0 01-3.346 2.135 9.85 9.85 0 01-3.91.646 9.89 9.89 0 01-6.767-3.051 10.006 10.006 0 01-2.772-6.919c0-2.58.993-5.059 2.772-6.918a9.89 9.89 0 016.767-3.051zM6.489 128.403a6.47 6.47 0 014.588 1.912 6.546 6.546 0 011.9 4.615 6.548 6.548 0 01-1.9 4.616 6.47 6.47 0 01-4.588 1.912 6.47 6.47 0 01-4.589-1.912A6.548 6.548 0 010 134.93c0-1.731.684-3.391 1.9-4.615a6.47 6.47 0 014.589-1.912zm277.03-.467c1.719 0 3.367.687 4.583 1.91a6.542 6.542 0 011.898 4.61 6.544 6.544 0 01-1.898 4.611 6.465 6.465 0 01-4.583 1.909 6.463 6.463 0 01-4.583-1.909 6.54 6.54 0 01-1.899-4.611c0-1.729.683-3.387 1.899-4.61a6.46 6.46 0 014.583-1.91zM121.993 74.638c2.649-.072 5.285.39 7.754 1.36a19.824 19.824 0 016.617 4.288 19.963 19.963 0 014.439 6.538 20.068 20.068 0 010 15.521 19.972 19.972 0 01-4.439 6.539 19.83 19.83 0 01-6.617 4.287 19.734 19.734 0 01-7.754 1.36 19.775 19.775 0 01-13.678-6.029 20.013 20.013 0 01-5.622-13.917 20.015 20.015 0 015.622-13.918 19.78 19.78 0 0113.678-6.03zm45.92-.16a19.73 19.73 0 017.754 1.36 19.825 19.825 0 016.617 4.287 19.95 19.95 0 014.439 6.539 20.05 20.05 0 010 15.521 19.942 19.942 0 01-4.439 6.538 19.814 19.814 0 01-6.617 4.287 19.732 19.732 0 01-7.754 1.361 19.785 19.785 0 01-13.678-6.029 20.02 20.02 0 01-5.621-13.918 20.018 20.018 0 015.621-13.917 19.782 19.782 0 0113.678-6.03zm-90.985 9.13c1.55-.078 3.101.161 4.557.704a11.445 11.445 0 013.912 2.455 11.525 11.525 0 012.634 3.807 11.582 11.582 0 010 9.086 11.532 11.532 0 01-2.634 3.808 11.452 11.452 0 01-3.912 2.454 11.401 11.401 0 01-12.282-2.864 11.561 11.561 0 01-3.154-7.94 11.56 11.56 0 013.154-7.941 11.426 11.426 0 017.725-3.569zm136.253-.248c1.538-.055 3.07.203 4.507.757a11.445 11.445 0 013.855 2.468 11.537 11.537 0 012.589 3.787 11.59 11.59 0 010 9.009 11.54 11.54 0 01-2.589 3.787 11.44 11.44 0 01-3.855 2.468 11.393 11.393 0 01-4.507.756 11.423 11.423 0 01-7.835-3.514 11.557 11.557 0 01-3.212-8.002c0-2.985 1.151-5.853 3.212-8.002a11.424 11.424 0 017.835-3.513zM36.184 63.466c2.125 0 4.162.849 5.665 2.36a8.083 8.083 0 012.346 5.699 8.083 8.083 0 01-2.346 5.698 7.987 7.987 0 01-5.665 2.36 7.987 7.987 0 01-5.665-2.36 8.083 8.083 0 01-2.346-5.698c0-2.138.844-4.187 2.346-5.699a7.987 7.987 0 015.665-2.36zm217.552-.38c2.125 0 4.163.85 5.665 2.361a8.085 8.085 0 012.346 5.698 8.085 8.085 0 01-2.346 5.7 7.987 7.987 0 01-5.665 2.36 7.986 7.986 0 01-5.664-2.36 8.082 8.082 0 01-2.347-5.7c0-2.137.844-4.187 2.347-5.698a7.986 7.986 0 015.664-2.36zm-108.863-19.18a11.39 11.39 0 014.557.703 11.455 11.455 0 013.913 2.455 11.524 11.524 0 012.633 3.807 11.587 11.587 0 010 9.087 11.524 11.524 0 01-2.633 3.807 11.455 11.455 0 01-3.913 2.454 11.392 11.392 0 01-4.557.704 11.428 11.428 0 01-7.725-3.568 11.563 11.563 0 01-3.153-7.94c0-2.956 1.129-5.8 3.153-7.941a11.427 11.427 0 017.725-3.568zm-50.966-8.11a9.865 9.865 0 013.91.646 9.918 9.918 0 013.347 2.135 10.017 10.017 0 012.248 11.094 9.976 9.976 0 01-2.248 3.283 9.918 9.918 0 01-3.347 2.135 9.863 9.863 0 01-3.91.646 9.891 9.891 0 01-6.767-3.05 10.008 10.008 0 01-2.772-6.92c0-2.58.994-5.06 2.772-6.918a9.891 9.891 0 016.767-3.051zm102.019-.146a9.887 9.887 0 017.013 2.922 10.007 10.007 0 012.905 7.055c0 2.646-1.045 5.184-2.905 7.055a9.887 9.887 0 01-7.013 2.922 9.89 9.89 0 01-7.013-2.922 10.006 10.006 0 01-2.904-7.055c0-2.646 1.044-5.184 2.904-7.055a9.89 9.89 0 017.013-2.922zM75.652 7.585a6.47 6.47 0 014.588 1.912 6.547 6.547 0 011.9 4.615 6.547 6.547 0 01-1.9 4.616 6.469 6.469 0 01-4.588 1.912 6.47 6.47 0 01-4.588-1.912 6.547 6.547 0 01-1.9-4.616c0-1.73.683-3.391 1.9-4.615a6.47 6.47 0 014.588-1.912zm138.297-.438c1.721 0 3.372.688 4.589 1.912a6.55 6.55 0 011.9 4.616 6.55 6.55 0 01-1.9 4.615 6.471 6.471 0 01-4.589 1.912 6.463 6.463 0 01-4.583-1.91 6.542 6.542 0 01-1.898-4.61c0-1.73.683-3.388 1.898-4.61a6.463 6.463 0 014.583-1.91v-.015zM144.786 0c2.125 0 4.162.85 5.665 2.36a8.085 8.085 0 012.346 5.699 8.084 8.084 0 01-2.346 5.698 7.988 7.988 0 01-5.665 2.36 7.988 7.988 0 01-5.665-2.36 8.084 8.084 0 01-2.346-5.698c0-2.137.844-4.187 2.346-5.699A7.988 7.988 0 01144.786 0z" fill="url(#paint0_linear_35919_171657)"/><defs><linearGradient id="paint0_linear_35919_171657" x1="145" y1="0" x2="145" y2="320.731" gradientUnits="userSpaceOnUse"><stop stop-color="#fff" stop-opacity="0"/><stop offset="1" stop-color="#fff"/></linearGradient></defs></svg>